<svg width="284" height="24" viewBox="0 0 284 24" fill="none" xmlns="http://www.w3.org/2000/svg">
<path d="M9.60288 3.14336H2.78525V20.7717H9.60288C12.4297 20.7717 14.6191 19.9646 16.1711 18.3504C17.7231 16.7363 18.4991 14.6124 18.4991 11.9788C18.4991 9.37345 17.6954 7.24956 16.0879 5.60708C14.5082 3.9646 12.3466 3.14336 9.60288 3.14336ZM0 2.50973C0 1.40516 0.895431 0.509733 2 0.509733H9.60288C13.178 0.509733 16.0325 1.58584 18.1665 3.73805C20.3005 5.89026 21.3674 8.65133 21.3674 12.0212C21.3674 15.3912 20.3143 18.1381 18.2081 20.2619C16.1295 22.3575 13.2611 23.4053 9.60288 23.4053H2C0.895431 23.4053 0 22.5099 0 21.4053V2.50973Z" fill="white"/>
<path d="M54.8164 0.509733V15.3345C54.8164 17.7133 55.246 19.3133 56.1051 20.1345C56.992 20.9274 58.7102 21.3239 61.2599 21.3239C63.8096 21.3239 65.514 20.9274 66.3731 20.1345C67.26 19.3133 67.7034 17.7133 67.7034 15.3345V0.509733H70.4887V16.0991C70.4887 18.9027 69.7681 20.9274 68.327 22.1735C66.9136 23.3911 64.5579 24 61.2599 24C57.962 24 55.5924 23.3911 54.1513 22.1735C52.7379 20.9274 52.0312 18.9027 52.0312 16.0991V0.509733H54.8164Z" fill="white"/>
<path d="M79.4722 9.55752H90.1975C92.6086 9.55752 93.8142 8.49557 93.8142 6.37168C93.8142 4.21947 92.6086 3.14336 90.1975 3.14336H79.4722V9.55752ZM79.4722 20.7717H91.1952C92.4978 20.7717 93.5093 20.3894 94.2299 19.6248C94.9504 18.8602 95.3107 17.8124 95.3107 16.4814C95.3107 15.1788 94.9504 14.1451 94.2299 13.3805C93.5093 12.5876 92.4978 12.1912 91.1952 12.1912H79.4722V20.7717ZM76.687 23.4053V0.509733H89.9481C94.41 0.509733 96.641 2.40708 96.641 6.20177C96.641 8.12743 95.962 9.5292 94.604 10.4071C97.0151 11.823 98.2207 13.8619 98.2207 16.5239C98.2207 18.6478 97.5555 20.3327 96.2253 21.5788C94.895 22.7965 93.0382 23.4053 90.6548 23.4053H76.687Z" fill="white"/>
<path d="M103.846 23.4053V0.509733H106.631V20.7717H120.173V23.4053H103.846Z" fill="white"/>
<path d="M124.632 23.4053V0.509733H142.258V3.14336H127.417V9.85487H136.396V12.4885H127.417V20.7717H143.172V23.4053H124.632Z" fill="white"/>
<path d="M186.015 23.4903V0.509733H188.841V23.4903H186.015Z" fill="white"/>
<path d="M198.255 10.7044H208.149C211.003 10.7044 212.431 9.45841 212.431 6.96637C212.431 5.77699 212.07 4.84248 211.35 4.16283C210.629 3.48319 209.604 3.14336 208.273 3.14336H198.255V10.7044ZM195.47 23.4053V0.509733H208.315C210.532 0.509733 212.25 1.06195 213.47 2.16637C214.717 3.24248 215.341 4.75752 215.341 6.7115C215.341 8.66549 214.745 10.2655 213.553 11.5115C212.361 12.7575 210.74 13.3805 208.689 13.3805H198.255V23.4053H195.47Z" fill="white"/>
<path d="M222.613 10.7044H232.507C235.361 10.7044 236.789 9.45841 236.789 6.96637C236.789 5.77699 236.428 4.84248 235.708 4.16283C234.987 3.48319 233.962 3.14336 232.631 3.14336H222.613V10.7044ZM219.828 23.4053V0.509733H232.673C234.89 0.509733 236.608 1.06195 237.828 2.16637C239.075 3.24248 239.699 4.75752 239.699 6.7115C239.699 8.66549 239.103 10.2655 237.911 11.5115C236.719 12.7575 235.098 13.3805 233.047 13.3805H222.613V23.4053H219.828Z" fill="white"/>
<path d="M244.31 23.4053V0.509733H247.096V20.7717H260.638V23.4053H244.31Z" fill="white"/>
<path d="M265.096 23.4053V0.509733H281.405C282.132 0.509733 282.722 1.09929 282.722 1.82655C282.722 2.5538 282.132 3.14336 281.405 3.14336H267.881V9.85487H275.543C276.271 9.85487 276.86 10.4444 276.86 11.1717C276.86 11.8989 276.271 12.4885 275.543 12.4885H267.881V20.7717H282.32C283.047 20.7717 283.636 21.3612 283.636 22.0885C283.636 22.8158 283.047 23.4053 282.32 23.4053H265.096Z" fill="white"/>
<path fill-rule="evenodd" clip-rule="evenodd" d="M175.339 12.8509C174.649 11.5315 173.283 10.7044 171.794 10.7044H163.829V3.14336H173.848C175.178 3.14336 176.203 3.48319 176.924 4.16283C177.644 4.84248 178.005 5.77699 178.005 6.96637C178.005 8.10101 177.414 9.24513 177.414 9.24513L178.909 11.7234C179.103 11.5398 179.286 11.3418 179.46 11.1292C180.43 9.9115 180.915 8.49557 180.915 6.88141C180.915 4.8708 180.291 3.31327 179.044 2.20885C177.825 1.0761 176.106 0.509733 173.889 0.509733H161.044V23.4053H163.829V13.3805H172.517L178.129 23.4053H181.206L175.594 13.3381L175.339 12.8509Z" fill="white"/>
<path d="M29.8411 18.7327C31.5039 20.4602 33.5825 21.3239 36.0767 21.3239C38.571 21.3239 40.6495 20.446 42.3124 18.6903C43.9752 16.9345 44.8066 14.7115 44.8066 12.0212C44.8066 9.30265 43.9752 7.06549 42.3124 5.30973C42.3124 5.30973 41.1321 4.21799 42.1169 3.14256C43.1018 2.06712 44.3909 3.39823 44.3909 3.39823C46.608 5.66372 47.7166 8.53805 47.7166 12.0212C47.7166 15.5044 46.608 18.3788 44.3909 20.6442C42.2015 22.8814 39.4301 24 36.0767 24C32.7233 24 29.9519 22.8814 27.7625 20.6442C25.5731 18.3788 24.4784 15.5044 24.4784 12.0212C24.4784 8.53805 25.5731 5.66372 27.7625 3.39823C29.9519 1.13274 32.7233 0 36.0767 0C36.0767 0 37.5602 0.0117429 37.5602 1.3498C37.5602 2.68785 36.0767 2.6761 36.0767 2.6761C33.5825 2.6761 31.5039 3.55398 29.8411 5.30973C28.1783 7.06549 27.3468 9.30265 27.3468 12.0212C27.3468 14.7398 28.1783 16.977 29.8411 18.7327Z" fill="white"/>
</svg>
