<svg xmlns="http://www.w3.org/2000/svg" fill="none" viewBox="0 0 128 128">
    <defs/>
    <path fill="#FF8869" d="M86 84c23.196 0 42-18.804 42-42S109.196 0 86 0 44 18.804 44 42s18.804 42 42 42z" opacity=".4"/>
    <path stroke="#2B3136" stroke-miterlimit="10" stroke-width="2" d="M80 106l6 20m-14 0h20M66 30H2v96h64V30zM2 38h64M12 50h16m0 8h16m-32 0h12m0 24h16m-28 0h8m0-16h20m4 0h12m-36 8h28M20 90h12m4 0h20m-36 8h28m-28 8h20m4 0h12m-44 8h16m4 0h8m50-86v16m-16 4v16m0 4v16m8-16v16m8-16v16m24-16v16M98 28v16m0 4v16M82 40c0 1.106-.894 2-2 2h-4c-1.106 0-2-.894-2-2v-8c0-1.106.894-2 2-2h4c1.106 0 2 .894 2 2v8zm32 0c0 1.106-.894 2-2 2h-4c-1.106 0-2-.894-2-2v-8c0-1.106.894-2 2-2h4c1.106 0 2 .894 2 2v8zM90 60c0 1.106-.894 2-2 2h-4c-1.106 0-2-.894-2-2v-8c0-1.106.894-2 2-2h4c1.106 0 2 .894 2 2v8zm24 0c0 1.106-.894 2-2 2h-4c-1.106 0-2-.894-2-2v-8c0-1.106.894-2 2-2h4c1.106 0 2 .894 2 2v8zm-8 20c0 1.106-.894 2-2 2h-4c-1.106 0-2-.894-2-2v-8c0-1.106.894-2 2-2h4c1.106 0 2 .894 2 2v8z"/>
    <path stroke="#2B3136" stroke-miterlimit="10" stroke-width="2" d="M2 24v-4a2 2 0 012-2h120a2 2 0 012 2v84a2 2 0 01-2 2H72m54-12H72"/>
</svg>
