<svg xmlns="http://www.w3.org/2000/svg" fill="none" viewBox="0 0 128 128">
    <defs/>
    <path fill="#FF8869" d="M42 128c23.196 0 42-18.804 42-42S65.196 44 42 44 0 62.804 0 86s18.804 42 42 42z" opacity=".4"/>
    <path stroke="#2B3136" stroke-linejoin="round" stroke-miterlimit="10" stroke-width="2" d="M48 48h4m4 0h4m4 0h4m-8 32h4m4 0h4m4 0h4m-8-32h28M28 80h28m-26 8v16L2 76l28-28v16h68v16l28-28-28-28v16"/>
    <path stroke="#2B3136" stroke-linejoin="round" stroke-miterlimit="10" stroke-width="2" d="M30 112v4l-.006-.148C39.758 122.268 51.444 126 64 126c34.242 0 62-27.758 62-62M98 16v-4l.006.148C88.242 5.732 76.556 2 64 2 29.758 2 2 29.758 2 64"/>
</svg>
