<svg xmlns="http://www.w3.org/2000/svg" fill="none" viewBox="0 0 1440 140"><defs/><path fill="url(#paint0_linear)" fill-rule="evenodd" d="M1439.96 20.61C1322 20.61 1241 105 1014.5 105c-197.5 0-389.253-45.5-500-45.5C285.661 59.5 239.632 130.506 0 129v11h1439.91s0-85.5.05-119.39z" clip-rule="evenodd" opacity=".18"/><path fill="url(#paint1_linear)" fill-rule="evenodd" d="M1440 105.886c-60.69-9.527-166.51-87.867-317.05-96.719-104.51-6.145-222.915 36.901-313.399 44.291-220.832 18.035-209.387-33.914-364.1-51.378C310.905-13.106 246.818 59.114 198.03 80.663 149.243 102.212 113.007 94.897.002 77.89-.008 77.945.02 140 .02 140H1440v-34.114z" clip-rule="evenodd" opacity=".2"/><path fill="url(#paint2_linear)" fill-rule="evenodd" d="M.576 0S422.116 124.258 589 107.712C755.884 91.166 807.199 41.848 946.5 51.5c139.3 9.652 182.86 71.891 314 73 131.14 1.109 179.5-16.788 179.5-16.788V140H0L.576 0z" clip-rule="evenodd" opacity=".2"/><defs><linearGradient id="paint0_linear" x1="720.004" x2="720.004" y1="20.585" y2="468" gradientUnits="userSpaceOnUse"><stop stop-color="#FF7088"/><stop offset=".495" stop-color="#FFAA85"/></linearGradient><linearGradient id="paint1_linear" x1="720.001" x2="720.001" y1=".003" y2="263.232" gradientUnits="userSpaceOnUse"><stop stop-color="#FFAA85"/><stop offset="1" stop-color="#FFAA85" stop-opacity="0"/></linearGradient><linearGradient id="paint2_linear" x1="720" x2="720" y1="0" y2="316.224" gradientUnits="userSpaceOnUse"><stop stop-color="#FFAA85"/><stop offset="1" stop-color="#FFAA85" stop-opacity="0"/></linearGradient></defs></svg>