<svg xmlns="http://www.w3.org/2000/svg" fill="none" viewBox="0 0 1440 134"><defs/><path fill="url(#paint0_linear)" d="M0 134h1440V20.489S1220.14-3.64 1079 .47C903.718 5.576 809.355 60.06 634 60.523c-163.433.432-252.076-48.24-415.5-50.043C133.086 9.538 0 20.489 0 20.489V134z"/><path fill="url(#paint1_linear)" fill-rule="evenodd" d="M.043 49C236 49 431.694 87 696 87c342 0 387-37 744-37V0H.043v49z" clip-rule="evenodd" opacity=".18"/><path fill="url(#paint2_linear)" fill-rule="evenodd" d="M0 57c60.693 9.527 103.197 68.144 254 68.144 108.5 0 227-51.378 376.448-51.378 192.552 0 207.552 51.378 364.1 51.378C1091 125.144 1146 75.209 1207 57c67-20 119.99-24.672 233-7.666.01-.055-.02-49.334-.02-49.334H0v57z" clip-rule="evenodd" opacity=".5"/><path fill="url(#paint3_linear)" fill-rule="evenodd" d="M1440 127.038c-146.42 0-129-45.75-307-45.75C964 81.289 850 134 710 134c-150 0-304.856-60.56-436-61.662-75 0-219 39.782-274 39.782V.73h1440v126.308z" clip-rule="evenodd" opacity=".5"/><defs><linearGradient id="paint0_linear" x1="0" x2="1441.8" y1="0" y2="110.486" gradientUnits="userSpaceOnUse"><stop stop-color="#FF905E"/><stop offset="1" stop-color="#FF7088"/></linearGradient><linearGradient id="paint1_linear" x1="719.996" x2="719.996" y1="107.639" y2="-339.776" gradientUnits="userSpaceOnUse"><stop stop-color="#FE9567"/><stop offset=".495" stop-color="#FFAA85"/></linearGradient><linearGradient id="paint2_linear" x1="719.999" x2="719.999" y1="127.221" y2="-136.008" gradientUnits="userSpaceOnUse"><stop stop-color="#FFAA85"/><stop offset="1" stop-color="#FFAA85" stop-opacity="0"/></linearGradient><linearGradient id="paint3_linear" x1="720" x2="720" y1="127.261" y2="-187.241" gradientUnits="userSpaceOnUse"><stop stop-color="#FF7088"/><stop offset=".26" stop-color="#FFAA85" stop-opacity=".16"/><stop offset="1" stop-color="#FFAA85" stop-opacity="0"/></linearGradient></defs></svg>