<svg xmlns="http://www.w3.org/2000/svg" fill="none" viewBox="0 0 1440 157"><defs/><path fill="url(#paint0_linear)" fill-rule="evenodd" d="M.043 137.341C115.694 139.525 479.18 6.452 900.66 4.78c421.48-1.672 299.71 90.768 539.34 92.278V0H.095S-.078 136.351.043 137.341z" clip-rule="evenodd" opacity=".6"/><path fill="url(#paint1_linear)" fill-rule="evenodd" d="M0 50.854c60.693 9.55 166.51 88.083 317.053 96.956 104.504 6.16 222.912-36.992 313.395-44.4 220.833-18.079 209.388 33.998 364.1 51.504 134.542 15.224 198.632-57.173 247.422-78.775 48.79-21.602 85.02-14.268 198.03 2.78.01-.055-.02-78.919-.02-78.919H0v50.854z" clip-rule="evenodd" opacity=".3"/><path fill="url(#paint2_linear)" fill-rule="evenodd" d="M1439.42 157S971.821 30.69 804.937 47.276C638.052 63.863 639.481 93.323 500.18 83.648c-139.301-9.676-186.29-56.045-317.434-57.156C51.603 25.38 0 49.024 0 49.024V0h1440l-.58 157z" clip-rule="evenodd" opacity=".6"/><path fill="url(#paint3_linear)" d="M0 0h1440v21S1220.14-3.107 1079 1C903.718 6.1 809.355 60.537 634 61c-163.433.432-252.077-48.2-415.5-50C133.086 10.059 0 21 0 21V0z"/><defs><linearGradient id="paint0_linear" x1="719.995" x2="719.995" y1="137.367" y2="-86.668" gradientUnits="userSpaceOnUse"><stop stop-color="#FF7088"/><stop offset="1" stop-color="#FF7088" stop-opacity="0"/></linearGradient><linearGradient id="paint1_linear" x1="719.999" x2="719.999" y1="156.997" y2="-106.878" gradientUnits="userSpaceOnUse"><stop stop-color="#FFAA85"/><stop offset="1" stop-color="#FFAA85" stop-opacity="0"/></linearGradient><linearGradient id="paint2_linear" x1="720" x2="720" y1="157" y2="-160" gradientUnits="userSpaceOnUse"><stop stop-color="#FFAA85"/><stop offset="1" stop-color="#FFAA85" stop-opacity="0"/></linearGradient><linearGradient id="paint3_linear" x1="0" x2="1410.31" y1="0" y2="237.394" gradientUnits="userSpaceOnUse"><stop stop-color="#FF905E"/><stop offset="1" stop-color="#FF7088"/></linearGradient></defs></svg>