<?xml version="1.0" standalone="no"?>
<!DOCTYPE svg PUBLIC "-//W3C//DTD SVG 20010904//EN"
 "http://www.w3.org/TR/2001/REC-SVG-20010904/DTD/svg10.dtd">
<svg version="1.0" xmlns="http://www.w3.org/2000/svg"
 width="700.000000pt" height="700.000000pt" viewBox="0 0 700.000000 700.000000"
 preserveAspectRatio="xMidYMid meet">
<metadata>
Created by potrace 1.11, written by Peter Selinger 2001-2013
</metadata>
<g transform="translate(0.000000,700.000000) scale(0.100000,-0.100000)"
fill="#000000" stroke="none">
<path d="M3225 6989 c-606 -52 -1164 -245 -1660 -574 -189 -126 -332 -242
-504 -410 -417 -407 -700 -858 -881 -1404 -321 -968 -204 -2029 321 -2903 150
-250 307 -448 538 -678 172 -171 332 -304 509 -423 863 -581 1938 -747 2938
-453 319 93 576 209 864 387 378 234 736 569 998 936 349 488 559 1042 634
1668 16 139 16 595 0 730 -54 444 -160 809 -342 1180 -362 736 -987 1334
-1740 1664 -512 224 -1126 326 -1675 280z m1400 -1563 c511 -111 861 -588 806
-1100 -68 -632 -668 -1047 -1281 -887 -126 33 -208 43 -282 32 -186 -26 -308
-147 -338 -333 -11 -75 -3 -154 30 -283 81 -315 20 -631 -170 -884 -73 -97
-147 -165 -257 -238 -99 -65 -164 -95 -271 -127 -531 -159 -1098 145 -1265
679 -108 345 -21 727 226 990 130 140 257 222 428 279 200 66 375 71 600 15
109 -27 136 -30 229 -26 131 5 195 31 274 109 72 73 98 141 103 273 4 87 0
117 -26 224 -38 154 -47 275 -31 401 32 246 140 455 325 627 142 134 332 227
525 258 102 17 275 13 375 -9z"/>
</g>
</svg>
