<svg xmlns="http://www.w3.org/2000/svg" version="1.0" viewBox="0 0 700 700"><defs/><path d="M322.5 1.1c-60.6 5.2-116.4 24.5-166 57.4-18.9 12.6-33.2 24.2-50.4 41-41.7 40.7-70 85.8-88.1 140.4-32.1 96.8-20.4 202.9 32.1 290.3 15 25 30.7 44.8 53.8 67.8 17.2 17.1 33.2 30.4 50.9 42.3 86.3 58.1 193.8 74.7 293.8 45.3 31.9-9.3 57.6-20.9 86.4-38.7 37.8-23.4 73.6-56.9 99.8-93.6 34.9-48.8 55.9-104.2 63.4-166.8 1.6-13.9 1.6-59.5 0-73-5.4-44.4-16-80.9-34.2-118-36.2-73.6-98.7-133.4-174-166.4-51.2-22.4-112.6-32.6-167.5-28zm140 156.3c51.1 11.1 86.1 58.8 80.6 110-6.8 63.2-66.8 104.7-128.1 88.7-12.6-3.3-20.8-4.3-28.2-3.2-18.6 2.6-30.8 14.7-33.8 33.3-1.1 7.5-.3 15.4 3 28.3 8.1 31.5 2 63.1-17 88.4-7.3 9.7-14.7 16.5-25.7 23.8-9.9 6.5-16.4 9.5-27.1 12.7-53.1 15.9-109.8-14.5-126.5-67.9-10.8-34.5-2.1-72.7 22.6-99 13-14 25.7-22.2 42.8-27.9 20-6.6 37.5-7.1 60-1.5 10.9 2.7 13.6 3 22.9 2.6 13.1-.5 19.5-3.1 27.4-10.9 7.2-7.3 9.8-14.1 10.3-27.3.4-8.7 0-11.7-2.6-22.4-3.8-15.4-4.7-27.5-3.1-40.1 3.2-24.6 14-45.5 32.5-62.7 14.2-13.4 33.2-22.7 52.5-25.8 10.2-1.7 27.5-1.3 37.5.9z"/></svg>