<svg xmlns="http://www.w3.org/2000/svg">
    <defs/>
    <symbol id="connection" stroke="#2B3136" stroke-linejoin="round" stroke-miterlimit="10" stroke-width="2" viewBox="0 0 128 128">
        <path fill="#FF8869" stroke-width="0" d="M64 102c20.987 0 38-17.013 38-38S84.987 26 64 26 26 43.013 26 64s17.013 38 38 38z" opacity=".4"/>
        <path d="M2 54c0-11.046 8.954-20 20-20h16c11.046 0 20 8.954 20 20v0a4 4 0 01-4 4H6a4 4 0 01-4-4v0z"/>
        <circle cx="30" cy="14" r="12"/>
        <path d="M70 122c0-11.046 8.954-20 20-20h16c11.046 0 20 8.954 20 20v0a4 4 0 01-4 4H74a4 4 0 01-4-4v0z"/>
        <circle cx="98" cy="82" r="12"/>
        <path d="M106 60v-4m-12 4V34H80v6L68 28l12-12m0 6h26v22m0 8v-4M22 68v4m12-4v26h14v-6l12 12-12 12m0-6H22V84m0-8v4"/>
    </symbol>
    <symbol id="algorithm" viewBox="0 0 128 128">
        <path fill="#FF8869" d="M128 64c0 22.09-17.908 40-40 40S48 86.09 48 64c0-22.102 17.908-40 40-40s40 17.898 40 40z" opacity=".4"/>
        <path stroke="#2B3136" stroke-linejoin="round" stroke-miterlimit="10" stroke-width="2" d="M18 126c8.837 0 16-7.163 16-16s-7.163-16-16-16-16 7.163-16 16 7.163 16 16 16zm0-46c8.837 0 16-7.163 16-16s-7.163-16-16-16S2 55.163 2 64s7.163 16 16 16zm46-24c8.837 0 16-7.163 16-16s-7.163-16-16-16-16 7.163-16 16 7.163 16 16 16zm46 24c8.837 0 16-7.163 16-16s-7.163-16-16-16-16 7.163-16 16 7.163 16 16 16zm-46 24c8.837 0 16-7.163 16-16s-7.163-16-16-16-16 7.163-16 16 7.163 16 16 16zM18 34c8.837 0 16-7.163 16-16S26.837 2 18 2 2 9.163 2 18s7.163 16 16 16z"/>
        <path stroke="#2B3136" stroke-linejoin="round" stroke-miterlimit="10" stroke-width="2" d="M64 88L18 64l46-24"/>
        <path stroke="#2B3136" stroke-linejoin="round" stroke-miterlimit="10" stroke-width="2" d="M64 88L18 18l46 22 46 24-46 24zm0 0l-46 22 46-70"/>
    </symbol>
    <symbol id="binary" viewBox="0 0 128 128">
        <path fill="#FF8869" d="M86 84c23.196 0 42-18.804 42-42S109.196 0 86 0 44 18.804 44 42s18.804 42 42 42z" opacity=".4"/>
        <path stroke="#2B3136" stroke-miterlimit="10" stroke-width="2" d="M80 106l6 20m-14 0h20M66 30H2v96h64V30zM2 38h64M12 50h16m0 8h16m-32 0h12m0 24h16m-28 0h8m0-16h20m4 0h12m-36 8h28M20 90h12m4 0h20m-36 8h28m-28 8h20m4 0h12m-44 8h16m4 0h8m50-86v16m-16 4v16m0 4v16m8-16v16m8-16v16m24-16v16M98 28v16m0 4v16M82 40c0 1.106-.894 2-2 2h-4c-1.106 0-2-.894-2-2v-8c0-1.106.894-2 2-2h4c1.106 0 2 .894 2 2v8zm32 0c0 1.106-.894 2-2 2h-4c-1.106 0-2-.894-2-2v-8c0-1.106.894-2 2-2h4c1.106 0 2 .894 2 2v8zM90 60c0 1.106-.894 2-2 2h-4c-1.106 0-2-.894-2-2v-8c0-1.106.894-2 2-2h4c1.106 0 2 .894 2 2v8zm24 0c0 1.106-.894 2-2 2h-4c-1.106 0-2-.894-2-2v-8c0-1.106.894-2 2-2h4c1.106 0 2 .894 2 2v8zm-8 20c0 1.106-.894 2-2 2h-4c-1.106 0-2-.894-2-2v-8c0-1.106.894-2 2-2h4c1.106 0 2 .894 2 2v8z"/>
        <path stroke="#2B3136" stroke-miterlimit="10" stroke-width="2" d="M2 24v-4a2 2 0 012-2h120a2 2 0 012 2v84a2 2 0 01-2 2H72m54-12H72"/>
    </symbol>
    <symbol id="user" fill="none" stroke="#fff" viewBox="0 0 16 16">
        <path d="M1 14a5 5 0 015-5h4a5 5 0 015 5v0a1 1 0 01-1 1H2a1 1 0 01-1-1v0z"/>
        <circle cx="8" cy="4" r="3"/>
    </symbol>
</svg>
