<svg xmlns="http://www.w3.org/2000/svg">
    <defs/>
    <symbol id="connection" viewBox="0 0 128 128">
        <path fill="#FF8869" d="M42 128c23.196 0 42-18.804 42-42S65.196 44 42 44 0 62.804 0 86s18.804 42 42 42z" opacity=".4"/>
        <path stroke="#2B3136" stroke-linejoin="round" stroke-miterlimit="10" stroke-width="2" d="M48 48h4m4 0h4m4 0h4m-8 32h4m4 0h4m4 0h4m-8-32h28M28 80h28m-26 8v16L2 76l28-28v16h68v16l28-28-28-28v16"/>
        <path stroke="#2B3136" stroke-linejoin="round" stroke-miterlimit="10" stroke-width="2" d="M30 112v4l-.006-.148C39.758 122.268 51.444 126 64 126c34.242 0 62-27.758 62-62M98 16v-4l.006.148C88.242 5.732 76.556 2 64 2 29.758 2 2 29.758 2 64"/>
    </symbol>
    <symbol id="algorithm" viewBox="0 0 128 128">
        <path fill="#FF8869" d="M128 64c0 22.09-17.908 40-40 40S48 86.09 48 64c0-22.102 17.908-40 40-40s40 17.898 40 40z" opacity=".4"/>
        <path stroke="#2B3136" stroke-linejoin="round" stroke-miterlimit="10" stroke-width="2" d="M18 126c8.837 0 16-7.163 16-16s-7.163-16-16-16-16 7.163-16 16 7.163 16 16 16zm0-46c8.837 0 16-7.163 16-16s-7.163-16-16-16S2 55.163 2 64s7.163 16 16 16zm46-24c8.837 0 16-7.163 16-16s-7.163-16-16-16-16 7.163-16 16 7.163 16 16 16zm46 24c8.837 0 16-7.163 16-16s-7.163-16-16-16-16 7.163-16 16 7.163 16 16 16zm-46 24c8.837 0 16-7.163 16-16s-7.163-16-16-16-16 7.163-16 16 7.163 16 16 16zM18 34c8.837 0 16-7.163 16-16S26.837 2 18 2 2 9.163 2 18s7.163 16 16 16z"/>
        <path stroke="#2B3136" stroke-linejoin="round" stroke-miterlimit="10" stroke-width="2" d="M64 88L18 64l46-24"/>
        <path stroke="#2B3136" stroke-linejoin="round" stroke-miterlimit="10" stroke-width="2" d="M64 88L18 18l46 22 46 24-46 24zm0 0l-46 22 46-70"/>
    </symbol>
    <symbol id="binary" viewBox="0 0 128 128">
        <path fill="#FF8869" d="M86 84c23.196 0 42-18.804 42-42S109.196 0 86 0 44 18.804 44 42s18.804 42 42 42z" opacity=".4"/>
        <path stroke="#2B3136" stroke-miterlimit="10" stroke-width="2" d="M80 106l6 20m-14 0h20M66 30H2v96h64V30zM2 38h64M12 50h16m0 8h16m-32 0h12m0 24h16m-28 0h8m0-16h20m4 0h12m-36 8h28M20 90h12m4 0h20m-36 8h28m-28 8h20m4 0h12m-44 8h16m4 0h8m50-86v16m-16 4v16m0 4v16m8-16v16m8-16v16m24-16v16M98 28v16m0 4v16M82 40c0 1.106-.894 2-2 2h-4c-1.106 0-2-.894-2-2v-8c0-1.106.894-2 2-2h4c1.106 0 2 .894 2 2v8zm32 0c0 1.106-.894 2-2 2h-4c-1.106 0-2-.894-2-2v-8c0-1.106.894-2 2-2h4c1.106 0 2 .894 2 2v8zM90 60c0 1.106-.894 2-2 2h-4c-1.106 0-2-.894-2-2v-8c0-1.106.894-2 2-2h4c1.106 0 2 .894 2 2v8zm24 0c0 1.106-.894 2-2 2h-4c-1.106 0-2-.894-2-2v-8c0-1.106.894-2 2-2h4c1.106 0 2 .894 2 2v8zm-8 20c0 1.106-.894 2-2 2h-4c-1.106 0-2-.894-2-2v-8c0-1.106.894-2 2-2h4c1.106 0 2 .894 2 2v8z"/>
        <path stroke="#2B3136" stroke-miterlimit="10" stroke-width="2" d="M2 24v-4a2 2 0 012-2h120a2 2 0 012 2v84a2 2 0 01-2 2H72m54-12H72"/>
    </symbol>
</svg>
