<svg xmlns="http://www.w3.org/2000/svg" width="284" height="24" fill="none"><defs/><path fill="#fff" d="M9.603 3.143H2.785v17.629h6.818c2.827 0 5.016-.807 6.568-2.422 1.552-1.614 2.328-3.738 2.328-6.371 0-2.606-.804-4.73-2.411-6.372-1.58-1.642-3.741-2.464-6.485-2.464zM0 2.51a2 2 0 012-2h7.603c3.575 0 6.43 1.076 8.563 3.228 2.134 2.152 3.201 4.913 3.201 8.283 0 3.37-1.053 6.117-3.159 8.24-2.078 2.097-4.947 3.144-8.605 3.144H2a2 2 0 01-2-2V2.51zm54.816-2v14.825c0 2.378.43 3.978 1.29 4.8.886.792 2.604 1.189 5.154 1.189s4.254-.397 5.113-1.19c.887-.82 1.33-2.42 1.33-4.8V.51h2.786V16.1c0 2.803-.72 4.827-2.162 6.073C66.914 23.392 64.557 24 61.26 24c-3.298 0-5.668-.609-7.109-1.826-1.413-1.247-2.12-3.271-2.12-6.075V.51h2.785zm24.656 9.048h10.726c2.41 0 3.616-1.062 3.616-3.186 0-2.153-1.205-3.229-3.616-3.229H79.472v6.415zm0 11.214h11.723c1.303 0 2.314-.383 3.035-1.147.72-.765 1.08-1.813 1.08-3.144 0-1.302-.36-2.336-1.08-3.1-.72-.793-1.732-1.19-3.035-1.19H79.472v8.58zm-2.785 2.633V.51h13.261c4.462 0 6.693 1.897 6.693 5.692 0 1.925-.679 3.327-2.037 4.205 2.411 1.416 3.617 3.455 3.617 6.117 0 2.124-.666 3.809-1.996 5.055-1.33 1.218-3.187 1.826-5.57 1.826H76.687zm27.159 0V.51h2.785v20.262h13.542v2.633h-16.327zm20.786 0V.51h17.626v2.633h-14.841v6.712h8.979v2.633h-8.979v8.284h15.755v2.633h-18.54zm61.383.085V.51h2.826v22.98h-2.826zm12.24-12.786h9.894c2.854 0 4.282-1.246 4.282-3.738 0-1.189-.361-2.124-1.081-2.803-.721-.68-1.746-1.02-3.077-1.02h-10.018v7.561zm-2.785 12.701V.51h12.845c2.217 0 3.935.552 5.155 1.656 1.247 1.076 1.871 2.592 1.871 4.546 0 1.953-.596 3.553-1.788 4.8-1.192 1.245-2.813 1.868-4.864 1.868h-10.434v10.025h-2.785zm27.143-12.701h9.894c2.854 0 4.282-1.246 4.282-3.738 0-1.189-.361-2.124-1.081-2.803-.721-.68-1.746-1.02-3.077-1.02h-10.018v7.561zm-2.785 12.701V.51h12.845c2.217 0 3.935.552 5.155 1.656 1.247 1.076 1.871 2.592 1.871 4.546 0 1.953-.596 3.553-1.788 4.8-1.192 1.245-2.813 1.868-4.864 1.868h-10.434v10.025h-2.785zm24.482 0V.51h2.786v20.262h13.542v2.633H244.31zm20.786 0V.51h16.309a1.317 1.317 0 010 2.633h-13.524v6.712h7.662a1.316 1.316 0 110 2.633h-7.662v8.284h14.439a1.316 1.316 0 010 2.633h-17.224z"/><path fill="#fff" fill-rule="evenodd" d="M175.339 12.85a4 4 0 00-3.545-2.146h-7.965v-7.56h10.019c1.33 0 2.355.34 3.076 1.019.72.68 1.081 1.614 1.081 2.803 0 1.135-.591 2.28-.591 2.28l1.495 2.477c.194-.183.377-.381.551-.594.97-1.217 1.455-2.633 1.455-4.248 0-2.01-.624-3.568-1.871-4.672-1.219-1.133-2.938-1.7-5.155-1.7h-12.845v22.896h2.785V13.38h8.688l5.612 10.025h3.077l-5.612-10.067-.255-.487z" clip-rule="evenodd"/><path fill="#fff" d="M29.841 18.733c1.663 1.727 3.742 2.59 6.236 2.59 2.494 0 4.573-.877 6.235-2.633 1.663-1.756 2.495-3.979 2.495-6.669 0-2.718-.832-4.956-2.495-6.711 0 0-1.18-1.092-.195-2.167.985-1.076 2.274.255 2.274.255 2.217 2.266 3.326 5.14 3.326 8.623 0 3.483-1.109 6.358-3.326 8.623C42.2 22.881 39.43 24 36.077 24s-6.125-1.119-8.314-3.356c-2.19-2.265-3.285-5.14-3.285-8.623 0-3.483 1.095-6.357 3.284-8.623C29.953 1.133 32.724 0 36.078 0c0 0 1.483.012 1.483 1.35s-1.483 1.326-1.483 1.326c-2.494 0-4.573.878-6.236 2.634-1.663 1.755-2.494 3.993-2.494 6.711 0 2.719.831 4.956 2.494 6.712z"/></svg>