<svg width="1440" height="134" viewBox="0 0 1440 134" fill="none" xmlns="http://www.w3.org/2000/svg">
<path d="M0 134H1440V20.4886C1440 20.4886 1220.14 -3.63917 1079 0.471318C903.718 5.57629 809.355 60.0596 634 60.5232C470.567 60.9553 381.924 12.2823 218.5 10.48C133.086 9.53799 0 20.4886 0 20.4886V134Z" fill="url(#paint0_linear)"/>
<path opacity="0.18" fill-rule="evenodd" clip-rule="evenodd" d="M0.04285 49C236 49 431.694 87.0001 696 87.0001C1038 87.0001 1083 50.0001 1440 50.0001L1440 0.00012207L0.0428543 3.8147e-06C0.0428543 3.8147e-06 0.04285 1.38661 0.04285 49Z" fill="url(#paint1_linear)"/>
<path opacity="0.5" fill-rule="evenodd" clip-rule="evenodd" d="M-0.000116113 57C60.6929 66.5272 103.197 125.144 254 125.144C362.5 125.144 481 73.7656 630.448 73.7656C823 73.7656 838 125.144 994.548 125.144C1091 125.144 1146 75.209 1207 57C1274 36.9999 1326.99 32.3276 1440 49.3345C1440.01 49.2788 1439.98 -1.72754e-09 1439.98 -1.72754e-09L1.09404e-05 3.81092e-06L-0.000116113 57Z" fill="url(#paint2_linear)"/>
<path opacity="0.5" fill-rule="evenodd" clip-rule="evenodd" d="M1440 127.038C1293.58 127.038 1311 81.2886 1133 81.2886C964 81.2886 850 134 710 134C560 134 405.144 73.4403 274 72.3376C199 72.3376 55 112.12 6.29482e-05 112.12C4.16082e-05 45.4846 2.86462e-05 0.729559 2.86462e-05 0.729559L1440 0.729563C1440 0.729563 1440 -17.3955 1440 127.038Z" fill="url(#paint3_linear)"/>
<defs>
<linearGradient id="paint0_linear" x1="0" y1="0" x2="1441.8" y2="110.486" gradientUnits="userSpaceOnUse">
<stop stop-color="#FF905E"/>
<stop offset="1" stop-color="#FF7088"/>
</linearGradient>
<linearGradient id="paint1_linear" x1="719.996" y1="107.639" x2="719.996" y2="-339.776" gradientUnits="userSpaceOnUse">
<stop stop-color="#FE9567"/>
<stop offset="0.494792" stop-color="#FFAA85"/>
</linearGradient>
<linearGradient id="paint2_linear" x1="719.999" y1="127.221" x2="719.999" y2="-136.008" gradientUnits="userSpaceOnUse">
<stop stop-color="#FFAA85"/>
<stop offset="1" stop-color="#FFAA85" stop-opacity="0"/>
</linearGradient>
<linearGradient id="paint3_linear" x1="720" y1="127.261" x2="720" y2="-187.241" gradientUnits="userSpaceOnUse">
<stop stop-color="#FF7088"/>
<stop offset="0.260417" stop-color="#FFAA85" stop-opacity="0.16"/>
<stop offset="1" stop-color="#FFAA85" stop-opacity="0"/>
</linearGradient>
</defs>
</svg>
