<svg width="1440" height="157" viewBox="0 0 1440 157" fill="none" xmlns="http://www.w3.org/2000/svg">
<path opacity="0.6" fill-rule="evenodd" clip-rule="evenodd" d="M0.0427246 137.341C115.694 139.525 479.18 6.45208 900.661 4.7798C1322.14 3.10752 1200.37 95.5479 1440 97.0577L1440 0L0.0946165 -3.8102e-06C0.0946165 -3.8102e-06 -0.0782317 136.351 0.0427246 137.341Z" fill="url(#paint0_linear)"/>
<path opacity="0.3" fill-rule="evenodd" clip-rule="evenodd" d="M-0.000112791 50.8542C60.6929 60.4048 166.51 138.937 317.053 147.81C421.557 153.97 539.965 110.818 630.448 103.41C851.281 85.3312 839.836 137.408 994.548 154.914C1129.09 170.138 1193.18 97.7412 1241.97 76.139C1290.76 54.5368 1326.99 61.8707 1440 78.9193C1440.01 78.8635 1439.98 -1.72761e-09 1439.98 -1.72761e-09L-0.000108345 -3.81849e-06L-0.000112791 50.8542Z" fill="url(#paint1_linear)"/>
<path opacity="0.6" fill-rule="evenodd" clip-rule="evenodd" d="M1439.42 157C1439.42 157 971.821 30.6891 804.937 47.2759C638.052 63.8626 639.481 93.3234 500.18 83.6476C360.879 73.9719 313.89 27.6033 182.746 26.4918C51.6026 25.3803 -8.01881e-05 49.0236 -8.01881e-05 49.0236L-0.000108345 0L1440 3.81848e-06L1439.42 157Z" fill="url(#paint2_linear)"/>
<path d="M-0.00012207 0H712L1440 4.79221e-05V20.9999C1440 20.9999 1220.14 -3.10701 1079 0.999933C903.718 6.10049 809.355 60.5368 634 61C470.567 61.4317 381.923 12.8007 218.5 10.9999C133.086 10.0588 -0.00012207 20.9999 -0.00012207 20.9999V0Z" fill="url(#paint3_linear)"/>
<defs>
<linearGradient id="paint0_linear" x1="719.995" y1="137.367" x2="719.995" y2="-86.6685" gradientUnits="userSpaceOnUse">
<stop stop-color="#FF7088"/>
<stop offset="1" stop-color="#FF7088" stop-opacity="0"/>
</linearGradient>
<linearGradient id="paint1_linear" x1="719.999" y1="156.997" x2="719.999" y2="-106.878" gradientUnits="userSpaceOnUse">
<stop stop-color="#FFAA85"/>
<stop offset="1" stop-color="#FFAA85" stop-opacity="0"/>
</linearGradient>
<linearGradient id="paint2_linear" x1="720" y1="157" x2="720" y2="-160" gradientUnits="userSpaceOnUse">
<stop stop-color="#FFAA85"/>
<stop offset="1" stop-color="#FFAA85" stop-opacity="0"/>
</linearGradient>
<linearGradient id="paint3_linear" x1="-0.00012207" y1="0" x2="1410.31" y2="237.394" gradientUnits="userSpaceOnUse">
<stop stop-color="#FF905E"/>
<stop offset="1" stop-color="#FF7088"/>
</linearGradient>
</defs>
</svg>
